<svg version="1.2" xmlns="http://www.w3.org/2000/svg" viewBox="0 0 24 24" width="24" height="24">
	<title>like-svg</title>
	<style>
		.s0 { fill: #ffffff } 
	</style>
	<path fill-rule="evenodd" class="s0" d="m19.4 2.5q1.3 0.6 2.2 1.6 1 1 1.5 2.3 0.4 1.3 0.4 2.7c0 3.6-2.6 5.9-5 8q-0.4 0.3-0.9 0.7l-0.9 0.9q-0.4 0.4-0.9 0.8-0.4 0.4-0.9 0.8-0.4 0.4-0.9 0.7-0.4 0.4-0.9 0.8-0.3 0.1-0.5 0.2-0.3 0.1-0.6 0.1-0.3 0-0.6-0.1-0.2-0.1-0.5-0.2-0.4-0.4-0.9-0.7-0.4-0.4-0.9-0.8-0.4-0.4-0.9-0.8-0.4-0.3-0.8-0.7l-1-1q-0.5-0.3-0.9-0.7c-2.4-2.2-5-4.4-5-8q0-1.4 0.4-2.7 0.5-1.3 1.5-2.3 0.9-1 2.2-1.6 1.2-0.5 2.6-0.6 0.7 0 1.4 0.1 0.6 0.1 1.2 0.4 0.7 0.3 1.2 0.7 0.6 0.4 1 0.9 0.4-0.5 1-0.9 0.5-0.4 1.2-0.7 0.6-0.3 1.2-0.4 0.7-0.1 1.4-0.1 1.4 0.1 2.6 0.6zm-3.7 1.5q-0.5 0.1-1 0.4-0.5 0.2-0.9 0.6-0.4 0.4-0.7 0.8c-0.8 1.2-1 1.8-1.1 1.8-0.1 0-0.3-0.6-1.1-1.8q-0.3-0.4-0.7-0.8-0.4-0.4-0.9-0.6-0.5-0.3-1-0.4-0.5-0.1-1.1-0.1-1 0.1-1.9 0.5-0.9 0.4-1.5 1.1-0.7 0.8-1 1.7-0.3 0.9-0.3 1.9c0 3.1 2.6 5 5.2 7.2 2.2 2 3.8 3.5 4.3 3.8 0.4-0.3 1.8-1.5 4.3-3.8 2.5-2.2 5.2-4.1 5.2-7.2q0-1-0.3-1.9-0.3-0.9-1-1.7-0.6-0.7-1.5-1.1-0.9-0.4-1.9-0.5-0.6 0-1.1 0.1z"/>
</svg>